<svg width="234" height="81" viewBox="0 0 234 81" fill="none" xmlns="http://www.w3.org/2000/svg">
<g filter="url(#filter0_d_130_131)">
<g filter="url(#filter1_d_130_131)">
<rect x="10" y="10" width="214" height="61" rx="5" fill="white"/>
</g>
<path d="M100.705 51H94.517V33.5455H100.756C102.511 33.5455 104.023 33.8949 105.29 34.5938C106.557 35.2869 107.531 36.2841 108.213 37.5852C108.901 38.8864 109.244 40.4432 109.244 42.2557C109.244 44.0739 108.901 45.6364 108.213 46.9432C107.531 48.25 106.551 49.2528 105.273 49.9517C104 50.6506 102.477 51 100.705 51ZM98.2074 47.8381H100.551C101.642 47.8381 102.56 47.6449 103.304 47.2585C104.054 46.8665 104.616 46.2614 104.991 45.4432C105.372 44.6193 105.562 43.5568 105.562 42.2557C105.562 40.9659 105.372 39.9119 104.991 39.0938C104.616 38.2756 104.057 37.6733 103.312 37.2869C102.568 36.9006 101.651 36.7074 100.56 36.7074H98.2074V47.8381ZM117.876 51.2557C116.529 51.2557 115.37 50.983 114.398 50.4375C113.433 49.8864 112.688 49.108 112.165 48.1023C111.643 47.0909 111.381 45.8949 111.381 44.5142C111.381 43.1676 111.643 41.9858 112.165 40.9688C112.688 39.9517 113.424 39.1591 114.373 38.5909C115.327 38.0227 116.447 37.7386 117.731 37.7386C118.594 37.7386 119.398 37.8778 120.143 38.1562C120.893 38.429 121.546 38.8409 122.103 39.392C122.665 39.9432 123.103 40.6364 123.415 41.4716C123.728 42.3011 123.884 43.2727 123.884 44.3864V45.3835H112.83V43.1335H120.467C120.467 42.6108 120.353 42.1477 120.126 41.7443C119.898 41.3409 119.583 41.0256 119.18 40.7983C118.782 40.5653 118.319 40.4489 117.79 40.4489C117.239 40.4489 116.751 40.5767 116.325 40.8324C115.904 41.0824 115.575 41.4205 115.336 41.8466C115.097 42.267 114.975 42.7358 114.969 43.2528V45.392C114.969 46.0398 115.089 46.5994 115.327 47.071C115.572 47.5426 115.915 47.9062 116.359 48.1619C116.802 48.4176 117.327 48.5455 117.935 48.5455C118.339 48.5455 118.708 48.4886 119.043 48.375C119.379 48.2614 119.665 48.0909 119.904 47.8636C120.143 47.6364 120.325 47.358 120.45 47.0284L123.808 47.25C123.637 48.0568 123.288 48.7614 122.759 49.3636C122.237 49.9602 121.56 50.4261 120.731 50.7614C119.907 51.0909 118.955 51.2557 117.876 51.2557ZM138.107 37.9091L133.53 51H129.439L124.862 37.9091H128.697L131.416 47.2756H131.553L134.263 37.9091H138.107ZM139.964 51V37.9091H143.595V51H139.964ZM141.788 36.2216C141.249 36.2216 140.786 36.0426 140.399 35.6847C140.018 35.321 139.828 34.8864 139.828 34.3807C139.828 33.8807 140.018 33.4517 140.399 33.0938C140.786 32.7301 141.249 32.5483 141.788 32.5483C142.328 32.5483 142.788 32.7301 143.169 33.0938C143.555 33.4517 143.749 33.8807 143.749 34.3807C143.749 34.8864 143.555 35.321 143.169 35.6847C142.788 36.0426 142.328 36.2216 141.788 36.2216ZM152.418 51.2557C151.077 51.2557 149.924 50.9716 148.958 50.4034C147.998 49.8295 147.259 49.0341 146.742 48.017C146.231 47 145.975 45.8295 145.975 44.5057C145.975 43.1648 146.234 41.9886 146.751 40.9773C147.273 39.9602 148.015 39.1676 148.975 38.5994C149.935 38.0256 151.077 37.7386 152.401 37.7386C153.543 37.7386 154.543 37.946 155.401 38.3608C156.259 38.7756 156.938 39.358 157.438 40.108C157.938 40.858 158.214 41.7386 158.265 42.75H154.839C154.742 42.0966 154.487 41.571 154.072 41.1733C153.663 40.7699 153.126 40.5682 152.461 40.5682C151.898 40.5682 151.407 40.7216 150.987 41.0284C150.572 41.3295 150.248 41.7699 150.015 42.3494C149.782 42.929 149.665 43.6307 149.665 44.4545C149.665 45.2898 149.779 46 150.006 46.5852C150.239 47.1705 150.566 47.6165 150.987 47.9233C151.407 48.2301 151.898 48.3835 152.461 48.3835C152.876 48.3835 153.248 48.2983 153.577 48.1278C153.913 47.9574 154.188 47.7102 154.404 47.3864C154.626 47.0568 154.771 46.6619 154.839 46.2017H158.265C158.208 47.2017 157.935 48.0824 157.447 48.8438C156.964 49.5994 156.296 50.1903 155.444 50.6165C154.592 51.0426 153.583 51.2557 152.418 51.2557ZM166.555 51.2557C165.209 51.2557 164.05 50.983 163.078 50.4375C162.112 49.8864 161.368 49.108 160.845 48.1023C160.322 47.0909 160.061 45.8949 160.061 44.5142C160.061 43.1676 160.322 41.9858 160.845 40.9688C161.368 39.9517 162.104 39.1591 163.053 38.5909C164.007 38.0227 165.126 37.7386 166.411 37.7386C167.274 37.7386 168.078 37.8778 168.822 38.1562C169.572 38.429 170.226 38.8409 170.783 39.392C171.345 39.9432 171.783 40.6364 172.095 41.4716C172.408 42.3011 172.564 43.2727 172.564 44.3864V45.3835H161.51V43.1335H169.146C169.146 42.6108 169.033 42.1477 168.805 41.7443C168.578 41.3409 168.263 41.0256 167.859 40.7983C167.462 40.5653 166.999 40.4489 166.47 40.4489C165.919 40.4489 165.43 40.5767 165.004 40.8324C164.584 41.0824 164.254 41.4205 164.016 41.8466C163.777 42.267 163.655 42.7358 163.649 43.2528V45.392C163.649 46.0398 163.768 46.5994 164.007 47.071C164.251 47.5426 164.595 47.9062 165.038 48.1619C165.482 48.4176 166.007 48.5455 166.615 48.5455C167.018 48.5455 167.388 48.4886 167.723 48.375C168.058 48.2614 168.345 48.0909 168.584 47.8636C168.822 47.6364 169.004 47.358 169.129 47.0284L172.487 47.25C172.317 48.0568 171.967 48.7614 171.439 49.3636C170.916 49.9602 170.24 50.4261 169.411 50.7614C168.587 51.0909 167.635 51.2557 166.555 51.2557ZM185.825 41.642L182.501 41.8466C182.445 41.5625 182.322 41.3068 182.135 41.0795C181.947 40.8466 181.7 40.6619 181.393 40.5256C181.092 40.3835 180.732 40.3125 180.311 40.3125C179.749 40.3125 179.274 40.4318 178.888 40.6705C178.501 40.9034 178.308 41.2159 178.308 41.608C178.308 41.9205 178.433 42.1847 178.683 42.4006C178.933 42.6165 179.362 42.7898 179.97 42.9205L182.339 43.3977C183.612 43.6591 184.561 44.0795 185.186 44.6591C185.811 45.2386 186.124 46 186.124 46.9432C186.124 47.8011 185.871 48.554 185.365 49.2017C184.865 49.8494 184.178 50.3551 183.303 50.7188C182.433 51.0767 181.43 51.2557 180.294 51.2557C178.561 51.2557 177.18 50.8949 176.152 50.1733C175.129 49.446 174.53 48.4574 174.354 47.2074L177.925 47.0199C178.033 47.5483 178.294 47.9517 178.709 48.2301C179.124 48.5028 179.655 48.6392 180.303 48.6392C180.939 48.6392 181.45 48.517 181.837 48.2727C182.229 48.0227 182.428 47.7017 182.433 47.3097C182.428 46.9801 182.288 46.7102 182.016 46.5C181.743 46.2841 181.322 46.1193 180.754 46.0057L178.487 45.554C177.209 45.2983 176.257 44.8551 175.632 44.2244C175.013 43.5937 174.703 42.7898 174.703 41.8125C174.703 40.9716 174.93 40.2472 175.385 39.6392C175.845 39.0312 176.49 38.5625 177.32 38.233C178.155 37.9034 179.132 37.7386 180.251 37.7386C181.905 37.7386 183.206 38.0881 184.155 38.7869C185.109 39.4858 185.666 40.4375 185.825 41.642Z" fill="#3C68B1"/>
<path d="M32.6 28.75C32.6 26.268 34.6628 24.25 37.2 24.25H64.8C67.3372 24.25 69.4 26.268 69.4 28.75V46.75H64.8V28.75H37.2V46.75H32.6V28.75ZM28 50.35C28 49.6047 28.6181 49 29.38 49H72.62C73.3819 49 74 49.6047 74 50.35C74 53.3313 71.5275 55.75 68.48 55.75H33.52C30.4725 55.75 28 53.3313 28 50.35ZM48.7 33.25C48.7 32.6313 49.2175 32.125 49.85 32.125H52.15C52.7825 32.125 53.3 32.6313 53.3 33.25V36.625H56.75C57.3825 36.625 57.9 37.1313 57.9 37.75V40C57.9 40.6187 57.3825 41.125 56.75 41.125H53.3V44.5C53.3 45.1187 52.7825 45.625 52.15 45.625H49.85C49.2175 45.625 48.7 45.1187 48.7 44.5V41.125H45.25C44.6175 41.125 44.1 40.6187 44.1 40V37.75C44.1 37.1313 44.6175 36.625 45.25 36.625H48.7V33.25Z" fill="#3C68B1"/>
</g>
<defs>
<filter id="filter0_d_130_131" x="0" y="0" width="234" height="81" filterUnits="userSpaceOnUse" color-interpolation-filters="sRGB">
<feFlood flood-opacity="0" result="BackgroundImageFix"/>
<feColorMatrix in="SourceAlpha" type="matrix" values="0 0 0 0 0 0 0 0 0 0 0 0 0 0 0 0 0 0 127 0" result="hardAlpha"/>
<feOffset/>
<feGaussianBlur stdDeviation="5"/>
<feComposite in2="hardAlpha" operator="out"/>
<feColorMatrix type="matrix" values="0 0 0 0 0 0 0 0 0 0 0 0 0 0 0 0 0 0 0.25 0"/>
<feBlend mode="normal" in2="BackgroundImageFix" result="effect1_dropShadow_130_131"/>
<feBlend mode="normal" in="SourceGraphic" in2="effect1_dropShadow_130_131" result="shape"/>
</filter>
<filter id="filter1_d_130_131" x="6" y="10" width="222" height="69" filterUnits="userSpaceOnUse" color-interpolation-filters="sRGB">
<feFlood flood-opacity="0" result="BackgroundImageFix"/>
<feColorMatrix in="SourceAlpha" type="matrix" values="0 0 0 0 0 0 0 0 0 0 0 0 0 0 0 0 0 0 127 0" result="hardAlpha"/>
<feOffset dy="4"/>
<feGaussianBlur stdDeviation="2"/>
<feComposite in2="hardAlpha" operator="out"/>
<feColorMatrix type="matrix" values="0 0 0 0 0 0 0 0 0 0 0 0 0 0 0 0 0 0 0.25 0"/>
<feBlend mode="normal" in2="BackgroundImageFix" result="effect1_dropShadow_130_131"/>
<feBlend mode="normal" in="SourceGraphic" in2="effect1_dropShadow_130_131" result="shape"/>
</filter>
</defs>
</svg>
